<mxfile host="app.diagrams.net" agent="Mozilla/5.0 (Windows NT 10.0; Win64; x64) AppleWebKit/537.36 (KHTML, like Gecko) Chrome/135.0.0.0 Safari/537.36 OPR/120.0.0.0" version="28.2.0">
  <diagram name="Página-1" id="9pTy-hlBD3SGqNXariDG">
    <mxGraphModel grid="1" page="1" gridSize="10" guides="1" tooltips="1" connect="1" arrows="1" fold="1" pageScale="1" pageWidth="827" pageHeight="1169" math="0" shadow="0">
      <root>
        <mxCell id="0" />
        <mxCell id="1" parent="0" />
        <mxCell id="SyO95VZ84pKPx3Lmv6xl-44" style="edgeStyle=orthogonalEdgeStyle;rounded=0;orthogonalLoop=1;jettySize=auto;html=1;" edge="1" parent="1" source="Jh_jQ0GHuq7OnWlKGPlj-2" target="SyO95VZ84pKPx3Lmv6xl-11">
          <mxGeometry relative="1" as="geometry" />
        </mxCell>
        <mxCell id="Jh_jQ0GHuq7OnWlKGPlj-2" value="Módulo gestión de paquetes" style="rounded=0;whiteSpace=wrap;html=1;fillColor=#3399FF;" vertex="1" parent="1">
          <mxGeometry x="580" y="190" width="120" height="60" as="geometry" />
        </mxCell>
        <mxCell id="SyO95VZ84pKPx3Lmv6xl-45" style="edgeStyle=orthogonalEdgeStyle;rounded=0;orthogonalLoop=1;jettySize=auto;html=1;" edge="1" parent="1" source="Jh_jQ0GHuq7OnWlKGPlj-3" target="SyO95VZ84pKPx3Lmv6xl-11">
          <mxGeometry relative="1" as="geometry" />
        </mxCell>
        <mxCell id="Jh_jQ0GHuq7OnWlKGPlj-3" value="Seguiemiento GPS" style="rounded=0;whiteSpace=wrap;html=1;fillColor=#3399FF;" vertex="1" parent="1">
          <mxGeometry x="580" y="280" width="120" height="60" as="geometry" />
        </mxCell>
        <mxCell id="SyO95VZ84pKPx3Lmv6xl-36" style="edgeStyle=orthogonalEdgeStyle;rounded=0;orthogonalLoop=1;jettySize=auto;html=1;" edge="1" parent="1" source="Jh_jQ0GHuq7OnWlKGPlj-4" target="SyO95VZ84pKPx3Lmv6xl-4">
          <mxGeometry relative="1" as="geometry" />
        </mxCell>
        <mxCell id="Jh_jQ0GHuq7OnWlKGPlj-4" value="Motor de rutas" style="rounded=0;whiteSpace=wrap;html=1;fillColor=#3399FF;" vertex="1" parent="1">
          <mxGeometry x="580" y="110" width="120" height="60" as="geometry" />
        </mxCell>
        <mxCell id="SyO95VZ84pKPx3Lmv6xl-52" style="edgeStyle=orthogonalEdgeStyle;rounded=0;orthogonalLoop=1;jettySize=auto;html=1;" edge="1" parent="1" source="SyO95VZ84pKPx3Lmv6xl-1" target="SyO95VZ84pKPx3Lmv6xl-51">
          <mxGeometry relative="1" as="geometry" />
        </mxCell>
        <mxCell id="SyO95VZ84pKPx3Lmv6xl-1" value="Sistema de alertas" style="rounded=0;whiteSpace=wrap;html=1;fillColor=#3399FF;" vertex="1" parent="1">
          <mxGeometry x="580" y="360" width="120" height="60" as="geometry" />
        </mxCell>
        <mxCell id="SyO95VZ84pKPx3Lmv6xl-33" style="edgeStyle=orthogonalEdgeStyle;rounded=0;orthogonalLoop=1;jettySize=auto;html=1;" edge="1" parent="1" source="SyO95VZ84pKPx3Lmv6xl-2" target="Jh_jQ0GHuq7OnWlKGPlj-2">
          <mxGeometry relative="1" as="geometry" />
        </mxCell>
        <mxCell id="SyO95VZ84pKPx3Lmv6xl-34" style="edgeStyle=orthogonalEdgeStyle;rounded=0;orthogonalLoop=1;jettySize=auto;html=1;entryX=0;entryY=0.5;entryDx=0;entryDy=0;" edge="1" parent="1" source="SyO95VZ84pKPx3Lmv6xl-2" target="Jh_jQ0GHuq7OnWlKGPlj-3">
          <mxGeometry relative="1" as="geometry" />
        </mxCell>
        <mxCell id="SyO95VZ84pKPx3Lmv6xl-35" style="edgeStyle=orthogonalEdgeStyle;rounded=0;orthogonalLoop=1;jettySize=auto;html=1;entryX=0;entryY=0.5;entryDx=0;entryDy=0;" edge="1" parent="1" source="SyO95VZ84pKPx3Lmv6xl-2" target="SyO95VZ84pKPx3Lmv6xl-1">
          <mxGeometry relative="1" as="geometry" />
        </mxCell>
        <mxCell id="SyO95VZ84pKPx3Lmv6xl-37" style="edgeStyle=orthogonalEdgeStyle;rounded=0;orthogonalLoop=1;jettySize=auto;html=1;entryX=0;entryY=0.5;entryDx=0;entryDy=0;" edge="1" parent="1" source="SyO95VZ84pKPx3Lmv6xl-2" target="Jh_jQ0GHuq7OnWlKGPlj-4">
          <mxGeometry relative="1" as="geometry" />
        </mxCell>
        <mxCell id="SyO95VZ84pKPx3Lmv6xl-42" value="" style="edgeStyle=orthogonalEdgeStyle;rounded=0;orthogonalLoop=1;jettySize=auto;html=1;" edge="1" parent="1" source="SyO95VZ84pKPx3Lmv6xl-2" target="Jh_jQ0GHuq7OnWlKGPlj-3">
          <mxGeometry relative="1" as="geometry" />
        </mxCell>
        <mxCell id="SyO95VZ84pKPx3Lmv6xl-2" value="Balanceador de carga" style="rounded=0;whiteSpace=wrap;html=1;" vertex="1" parent="1">
          <mxGeometry x="354" y="230" width="120" height="60" as="geometry" />
        </mxCell>
        <mxCell id="SyO95VZ84pKPx3Lmv6xl-4" value="Integración con los proveedores de geolocalización" style="rounded=0;whiteSpace=wrap;html=1;fillColor=#B3B3B3;" vertex="1" parent="1">
          <mxGeometry x="850" y="110" width="120" height="60" as="geometry" />
        </mxCell>
        <mxCell id="SyO95VZ84pKPx3Lmv6xl-41" style="edgeStyle=orthogonalEdgeStyle;rounded=0;orthogonalLoop=1;jettySize=auto;html=1;entryX=0;entryY=0.5;entryDx=0;entryDy=0;" edge="1" parent="1" source="SyO95VZ84pKPx3Lmv6xl-6">
          <mxGeometry relative="1" as="geometry">
            <Array as="points">
              <mxPoint x="70" y="220" />
              <mxPoint x="70" y="165" />
            </Array>
            <mxPoint x="130" y="165" as="targetPoint" />
          </mxGeometry>
        </mxCell>
        <mxCell id="SyO95VZ84pKPx3Lmv6xl-56" style="edgeStyle=orthogonalEdgeStyle;rounded=0;orthogonalLoop=1;jettySize=auto;html=1;entryX=0;entryY=0.5;entryDx=0;entryDy=0;" edge="1" parent="1" source="SyO95VZ84pKPx3Lmv6xl-6" target="BtkG7MUYjmqCGUyWXSYy-14">
          <mxGeometry relative="1" as="geometry">
            <mxPoint x="70" y="280" as="targetPoint" />
          </mxGeometry>
        </mxCell>
        <mxCell id="SyO95VZ84pKPx3Lmv6xl-6" value="Actor" style="shape=umlActor;verticalLabelPosition=bottom;verticalAlign=top;html=1;outlineConnect=0;" vertex="1" parent="1">
          <mxGeometry x="-20" y="190" width="30" height="60" as="geometry" />
        </mxCell>
        <mxCell id="SyO95VZ84pKPx3Lmv6xl-38" style="edgeStyle=orthogonalEdgeStyle;rounded=0;orthogonalLoop=1;jettySize=auto;html=1;exitX=1;exitY=0.5;exitDx=0;exitDy=0;" edge="1" parent="1" source="BtkG7MUYjmqCGUyWXSYy-14" target="SyO95VZ84pKPx3Lmv6xl-2">
          <mxGeometry relative="1" as="geometry">
            <Array as="points">
              <mxPoint x="300" y="280" />
              <mxPoint x="300" y="260" />
            </Array>
            <mxPoint x="250" y="290" as="sourcePoint" />
          </mxGeometry>
        </mxCell>
        <mxCell id="SyO95VZ84pKPx3Lmv6xl-11" value="&lt;div&gt;&lt;br&gt;&lt;/div&gt;Base de datos distribuida" style="strokeWidth=2;html=1;shape=mxgraph.flowchart.database;whiteSpace=wrap;fillColor=#3399FF;" vertex="1" parent="1">
          <mxGeometry x="860" y="230" width="100" height="80" as="geometry" />
        </mxCell>
        <mxCell id="SyO95VZ84pKPx3Lmv6xl-39" style="edgeStyle=orthogonalEdgeStyle;rounded=0;orthogonalLoop=1;jettySize=auto;html=1;entryX=0;entryY=0.5;entryDx=0;entryDy=0;" edge="1" parent="1" source="BtkG7MUYjmqCGUyWXSYy-13" target="SyO95VZ84pKPx3Lmv6xl-2">
          <mxGeometry relative="1" as="geometry">
            <Array as="points">
              <mxPoint x="300" y="165" />
              <mxPoint x="300" y="260" />
            </Array>
            <mxPoint x="255" y="175" as="sourcePoint" />
          </mxGeometry>
        </mxCell>
        <mxCell id="SyO95VZ84pKPx3Lmv6xl-29" value="CONTAINERS" style="text;html=1;align=center;verticalAlign=middle;whiteSpace=wrap;rounded=0;" vertex="1" parent="1">
          <mxGeometry x="384" y="70" width="60" height="30" as="geometry" />
        </mxCell>
        <mxCell id="SyO95VZ84pKPx3Lmv6xl-43" value="&lt;font style=&quot;font-size: 10px;&quot;&gt;Distribuye&lt;/font&gt;&lt;div&gt;&lt;font style=&quot;font-size: 10px;&quot;&gt;&amp;nbsp;el tráfico&lt;/font&gt;&lt;/div&gt;" style="text;html=1;align=center;verticalAlign=middle;resizable=0;points=[];autosize=1;strokeColor=none;fillColor=none;" vertex="1" parent="1">
          <mxGeometry x="470" y="260" width="70" height="40" as="geometry" />
        </mxCell>
        <mxCell id="SyO95VZ84pKPx3Lmv6xl-47" value="&lt;font style=&quot;font-size: 10px;&quot;&gt;Usuarios finales&lt;/font&gt;" style="text;html=1;align=center;verticalAlign=middle;resizable=0;points=[];autosize=1;strokeColor=none;fillColor=none;" vertex="1" parent="1">
          <mxGeometry x="145" y="320" width="90" height="30" as="geometry" />
        </mxCell>
        <mxCell id="SyO95VZ84pKPx3Lmv6xl-48" value="&lt;font style=&quot;font-size: 10px;&quot;&gt;Clientes coorporativos&lt;/font&gt;" style="text;html=1;align=center;verticalAlign=middle;resizable=0;points=[];autosize=1;strokeColor=none;fillColor=none;" vertex="1" parent="1">
          <mxGeometry x="135" y="100" width="120" height="30" as="geometry" />
        </mxCell>
        <mxCell id="SyO95VZ84pKPx3Lmv6xl-49" value="&lt;font style=&quot;font-size: 10px;&quot;&gt;CRUD de&amp;nbsp;&lt;/font&gt;&lt;div&gt;&lt;font style=&quot;font-size: 10px;&quot;&gt;paquetes&lt;/font&gt;&lt;/div&gt;" style="text;html=1;align=center;verticalAlign=middle;resizable=0;points=[];autosize=1;strokeColor=none;fillColor=none;" vertex="1" parent="1">
          <mxGeometry x="790" y="230" width="70" height="40" as="geometry" />
        </mxCell>
        <mxCell id="SyO95VZ84pKPx3Lmv6xl-50" value="&lt;font style=&quot;font-size: 10px;&quot;&gt;Consumo de API de terceros&lt;/font&gt;" style="text;html=1;align=center;verticalAlign=middle;resizable=0;points=[];autosize=1;strokeColor=none;fillColor=none;" vertex="1" parent="1">
          <mxGeometry x="700" y="110" width="150" height="30" as="geometry" />
        </mxCell>
        <mxCell id="SyO95VZ84pKPx3Lmv6xl-51" value="API de notificaciones (SMS, email push)" style="rounded=0;whiteSpace=wrap;html=1;fillColor=#3399FF;" vertex="1" parent="1">
          <mxGeometry x="850" y="360" width="120" height="60" as="geometry" />
        </mxCell>
        <mxCell id="SyO95VZ84pKPx3Lmv6xl-53" value="&lt;span style=&quot;font-size: 10px;&quot;&gt;Alerta de pedidos&lt;/span&gt;" style="text;html=1;align=center;verticalAlign=middle;resizable=0;points=[];autosize=1;strokeColor=none;fillColor=none;" vertex="1" parent="1">
          <mxGeometry x="725" y="360" width="100" height="30" as="geometry" />
        </mxCell>
        <mxCell id="BtkG7MUYjmqCGUyWXSYy-1" value="" style="endArrow=none;dashed=1;html=1;rounded=0;" edge="1" parent="1">
          <mxGeometry width="50" height="50" relative="1" as="geometry">
            <mxPoint x="100" y="70" as="sourcePoint" />
            <mxPoint x="740" y="70" as="targetPoint" />
          </mxGeometry>
        </mxCell>
        <mxCell id="BtkG7MUYjmqCGUyWXSYy-2" value="" style="endArrow=none;dashed=1;html=1;rounded=0;" edge="1" parent="1">
          <mxGeometry width="50" height="50" relative="1" as="geometry">
            <mxPoint x="100" y="70" as="sourcePoint" />
            <mxPoint x="100" y="360" as="targetPoint" />
          </mxGeometry>
        </mxCell>
        <mxCell id="BtkG7MUYjmqCGUyWXSYy-3" value="" style="endArrow=none;dashed=1;html=1;rounded=0;" edge="1" parent="1">
          <mxGeometry width="50" height="50" relative="1" as="geometry">
            <mxPoint x="100" y="359" as="sourcePoint" />
            <mxPoint x="280" y="359" as="targetPoint" />
          </mxGeometry>
        </mxCell>
        <mxCell id="BtkG7MUYjmqCGUyWXSYy-4" value="&lt;span style=&quot;font-size: 10px;&quot;&gt;Usa&lt;/span&gt;" style="text;html=1;align=center;verticalAlign=middle;resizable=0;points=[];autosize=1;strokeColor=none;fillColor=none;" vertex="1" parent="1">
          <mxGeometry x="290" y="290" width="40" height="30" as="geometry" />
        </mxCell>
        <mxCell id="BtkG7MUYjmqCGUyWXSYy-5" value="&lt;span style=&quot;font-size: 10px;&quot;&gt;Usa&lt;/span&gt;" style="text;html=1;align=center;verticalAlign=middle;resizable=0;points=[];autosize=1;strokeColor=none;fillColor=none;" vertex="1" parent="1">
          <mxGeometry x="290" y="140" width="40" height="30" as="geometry" />
        </mxCell>
        <mxCell id="BtkG7MUYjmqCGUyWXSYy-6" value="" style="endArrow=none;dashed=1;html=1;rounded=0;" edge="1" parent="1">
          <mxGeometry width="50" height="50" relative="1" as="geometry">
            <mxPoint x="740" y="70" as="sourcePoint" />
            <mxPoint x="740" y="440" as="targetPoint" />
          </mxGeometry>
        </mxCell>
        <mxCell id="BtkG7MUYjmqCGUyWXSYy-7" value="" style="endArrow=none;dashed=1;html=1;rounded=0;" edge="1" parent="1">
          <mxGeometry width="50" height="50" relative="1" as="geometry">
            <mxPoint x="560" y="440" as="sourcePoint" />
            <mxPoint x="740" y="440" as="targetPoint" />
          </mxGeometry>
        </mxCell>
        <mxCell id="BtkG7MUYjmqCGUyWXSYy-8" value="" style="endArrow=none;dashed=1;html=1;rounded=0;" edge="1" parent="1">
          <mxGeometry width="50" height="50" relative="1" as="geometry">
            <mxPoint x="560" y="120" as="sourcePoint" />
            <mxPoint x="560" y="440" as="targetPoint" />
          </mxGeometry>
        </mxCell>
        <mxCell id="BtkG7MUYjmqCGUyWXSYy-10" value="" style="endArrow=none;dashed=1;html=1;rounded=0;" edge="1" parent="1">
          <mxGeometry width="50" height="50" relative="1" as="geometry">
            <mxPoint x="280" y="115" as="sourcePoint" />
            <mxPoint x="560" y="115" as="targetPoint" />
          </mxGeometry>
        </mxCell>
        <mxCell id="BtkG7MUYjmqCGUyWXSYy-11" value="" style="endArrow=none;dashed=1;html=1;rounded=0;" edge="1" parent="1">
          <mxGeometry width="50" height="50" relative="1" as="geometry">
            <mxPoint x="280" y="120" as="sourcePoint" />
            <mxPoint x="280" y="360" as="targetPoint" />
          </mxGeometry>
        </mxCell>
        <mxCell id="BtkG7MUYjmqCGUyWXSYy-13" value="Portal Web" style="rounded=1;whiteSpace=wrap;html=1;fillColor=#3399FF;" vertex="1" parent="1">
          <mxGeometry x="130" y="130" width="120" height="60" as="geometry" />
        </mxCell>
        <mxCell id="BtkG7MUYjmqCGUyWXSYy-14" value="App del Cliente" style="rounded=1;whiteSpace=wrap;html=1;fillColor=#3399FF;" vertex="1" parent="1">
          <mxGeometry x="130" y="250" width="120" height="60" as="geometry" />
        </mxCell>
      </root>
    </mxGraphModel>
  </diagram>
</mxfile>
